<?xml version="1.0" encoding="UTF-8" standalone="no"?>
<!DOCTYPE svg PUBLIC "-//W3C//DTD SVG 20010904//EN"
              "http://www.w3.org/TR/2001/REC-SVG-20010904/DTD/svg10.dtd">

<svg xmlns="http://www.w3.org/2000/svg"
     width="2.4in" height="2.4in"
     viewBox="0 0 720 720">
  <path id="Selection #1"
        fill="none" stroke="black" stroke-width="1"
        d="M 234.00,155.43
           C 212.09,159.01 198.16,162.94 179.00,174.81
             163.86,184.20 153.64,195.20 144.00,210.00
             132.79,227.22 124.03,253.35 124.00,274.00
             123.97,293.68 127.83,315.70 135.21,334.00
             144.76,357.69 160.22,378.74 176.73,398.00
             202.80,428.42 235.55,457.27 266.00,483.42
             266.00,483.42 336.00,542.25 336.00,542.25
             336.00,542.25 353.00,556.00 353.00,556.00
             355.19,557.71 357.98,560.38 361.00,559.77
             363.17,559.32 367.18,555.86 369.00,554.39
             369.00,554.39 385.00,541.41 385.00,541.41
             385.00,541.41 444.00,492.08 444.00,492.08
             444.00,492.08 484.00,457.08 484.00,457.08
             537.80,407.59 596.12,353.85 596.00,275.00
             595.97,257.72 590.45,237.40 582.75,222.00
             575.72,207.94 567.71,196.58 555.96,186.00
             545.72,176.78 533.64,169.88 521.00,164.58
             482.69,148.51 443.25,153.15 408.00,174.45
             396.09,181.65 385.74,191.15 376.00,201.00
             370.94,206.12 367.11,213.49 359.00,212.94
             352.75,212.51 349.94,207.16 345.96,203.00
             337.55,194.20 330.74,187.98 321.00,180.66
             297.61,163.10 263.38,151.80 234.00,155.43 Z
           M 231.00,166.29
           C 263.81,163.22 295.43,170.93 321.00,192.32
             329.68,199.58 342.17,212.43 349.72,221.00
             351.57,223.11 357.36,230.96 360.00,230.96
             362.64,230.96 368.43,223.11 370.28,221.00
             379.13,210.94 388.71,200.91 399.00,192.32
             418.01,176.45 443.05,166.04 468.00,166.00
             468.00,166.00 482.00,166.00 482.00,166.00
             525.32,166.07 565.27,197.76 579.31,238.00
             582.97,248.50 584.87,261.90 585.00,273.00
             585.17,288.15 583.61,305.46 579.28,320.00
             568.16,357.31 539.99,389.01 513.00,416.00
             487.52,441.48 460.52,465.17 433.00,488.42
             433.00,488.42 383.00,530.20 383.00,530.20
             378.39,533.89 367.24,544.10 362.00,544.85
             353.11,546.13 341.62,533.85 335.00,528.42
             335.00,528.42 271.00,474.95 271.00,474.95
             240.76,448.09 210.05,421.72 183.58,391.00
             170.89,376.28 156.49,357.68 148.31,340.00
             138.65,319.12 134.89,296.87 135.00,274.00
             135.14,244.12 145.81,218.19 167.00,197.00
             173.40,190.60 180.14,184.95 188.00,180.43
             204.00,171.22 213.11,169.02 231.00,166.29 Z" />
</svg>
